<mxfile host="Electron" agent="Mozilla/5.0 (X11; Linux x86_64) AppleWebKit/537.36 (KHTML, like Gecko) draw.io/28.0.4 Chrome/138.0.7204.97 Electron/37.2.1 Safari/537.36" version="28.0.4">
  <diagram name="Page-1" id="i1wKzdw2gouAk6NZlCfU">
    <mxGraphModel dx="786" dy="482" grid="1" gridSize="10" guides="1" tooltips="1" connect="1" arrows="1" fold="1" page="1" pageScale="1" pageWidth="850" pageHeight="1100" math="0" shadow="0">
      <root>
        <mxCell id="0" />
        <mxCell id="1" parent="0" />
        <mxCell id="fppqhzT-q2X-uRRCq6iF-5" value="&lt;b&gt;AWS EC2 (Amazon Linux)&lt;/b&gt;" style="rounded=1;whiteSpace=wrap;html=1;fontSize=12;verticalAlign=bottom;" parent="1" vertex="1">
          <mxGeometry x="100" y="300" width="670" height="290" as="geometry" />
        </mxCell>
        <mxCell id="fppqhzT-q2X-uRRCq6iF-25" style="edgeStyle=orthogonalEdgeStyle;rounded=0;orthogonalLoop=1;jettySize=auto;html=1;entryX=0.5;entryY=0;entryDx=0;entryDy=0;" parent="1" source="fppqhzT-q2X-uRRCq6iF-1" target="fppqhzT-q2X-uRRCq6iF-4" edge="1">
          <mxGeometry relative="1" as="geometry" />
        </mxCell>
        <mxCell id="fppqhzT-q2X-uRRCq6iF-28" style="edgeStyle=orthogonalEdgeStyle;rounded=0;orthogonalLoop=1;jettySize=auto;html=1;" parent="1" edge="1">
          <mxGeometry relative="1" as="geometry">
            <mxPoint x="350" y="401" as="sourcePoint" />
            <mxPoint x="469" y="401" as="targetPoint" />
          </mxGeometry>
        </mxCell>
        <mxCell id="fppqhzT-q2X-uRRCq6iF-29" value="JSON&lt;br&gt;&amp;amp;&lt;br&gt;Cookies&lt;div&gt;(JWT + CSRF)&lt;/div&gt;" style="edgeLabel;html=1;align=center;verticalAlign=middle;resizable=0;points=[];fontSize=7;" parent="fppqhzT-q2X-uRRCq6iF-28" vertex="1" connectable="0">
          <mxGeometry x="-0.0008" relative="1" as="geometry">
            <mxPoint as="offset" />
          </mxGeometry>
        </mxCell>
        <mxCell id="fppqhzT-q2X-uRRCq6iF-1" value="&lt;div style=&quot;text-align: center;&quot;&gt;&lt;span style=&quot;background-color: transparent; color: light-dark(rgb(0, 0, 0), rgb(255, 255, 255));&quot;&gt;&lt;b&gt;Flask with Gunicorn&lt;/b&gt;&lt;/span&gt;&lt;/div&gt;&lt;ul&gt;&lt;li&gt;&lt;font style=&quot;font-size: 9px;&quot;&gt;Validate User Input&lt;/font&gt;&lt;/li&gt;&lt;li&gt;&lt;font style=&quot;font-size: 9px;&quot;&gt;Authenticate User and issue Cookie JWT + CSRF Token&lt;/font&gt;&lt;/li&gt;&lt;li&gt;&lt;font style=&quot;font-size: 9px;&quot;&gt;CRUD Database&lt;/font&gt;&lt;/li&gt;&lt;li&gt;&lt;font style=&quot;font-size: 9px;&quot;&gt;Parse and validate CSV&lt;/font&gt;&lt;/li&gt;&lt;li&gt;&lt;font style=&quot;font-size: 9px;&quot;&gt;Return JSON response&lt;/font&gt;&lt;/li&gt;&lt;/ul&gt;" style="rounded=1;whiteSpace=wrap;html=1;align=left;verticalAlign=middle;" parent="1" vertex="1">
          <mxGeometry x="119.5" y="366" width="230.5" height="134" as="geometry" />
        </mxCell>
        <mxCell id="fppqhzT-q2X-uRRCq6iF-26" style="edgeStyle=orthogonalEdgeStyle;rounded=0;orthogonalLoop=1;jettySize=auto;html=1;" parent="1" edge="1">
          <mxGeometry relative="1" as="geometry">
            <mxPoint x="470" y="464" as="sourcePoint" />
            <mxPoint x="350" y="464" as="targetPoint" />
          </mxGeometry>
        </mxCell>
        <mxCell id="fppqhzT-q2X-uRRCq6iF-27" value="/api&lt;div&gt;&lt;font style=&quot;font-size: 8px;&quot;&gt;[GET, POST]&lt;/font&gt;&lt;/div&gt;" style="edgeLabel;html=1;align=center;verticalAlign=middle;resizable=0;points=[];" parent="fppqhzT-q2X-uRRCq6iF-26" vertex="1" connectable="0">
          <mxGeometry x="0.019" y="-1" relative="1" as="geometry">
            <mxPoint x="2" y="1" as="offset" />
          </mxGeometry>
        </mxCell>
        <mxCell id="fppqhzT-q2X-uRRCq6iF-3" value="&lt;div&gt;&lt;ul&gt;&lt;li style=&quot;&quot;&gt;&lt;font style=&quot;font-size: 10px;&quot;&gt;Serve React Build pages + assets&lt;/font&gt;&lt;/li&gt;&lt;li style=&quot;&quot;&gt;&lt;font style=&quot;font-size: 10px;&quot;&gt;Route /api URI to Gunicorn&lt;/font&gt;&lt;/li&gt;&lt;li style=&quot;&quot;&gt;&lt;font style=&quot;font-size: 10px;&quot;&gt;Forward cookies to Flask&lt;/font&gt;&lt;/li&gt;&lt;li style=&quot;&quot;&gt;&lt;font style=&quot;font-size: 10px;&quot;&gt;Handle CORS gracefully&lt;/font&gt;&lt;/li&gt;&lt;/ul&gt;&lt;/div&gt;&lt;div style=&quot;text-align: center;&quot;&gt;&lt;b style=&quot;font-weight: bold; background-color: transparent; color: light-dark(rgb(0, 0, 0), rgb(255, 255, 255));&quot;&gt;&amp;nbsp; &amp;nbsp; &amp;nbsp;&lt;span style=&quot;white-space: pre;&quot;&gt;&#x9;&lt;/span&gt;&lt;span style=&quot;white-space: pre;&quot;&gt;&#x9;&lt;/span&gt;&lt;/b&gt;&lt;span style=&quot;background-color: transparent; color: light-dark(rgb(0, 0, 0), rgb(255, 255, 255)); text-align: left;&quot;&gt;&lt;b&gt;Nginx (Reverse Proxy Server)&lt;/b&gt;&lt;/span&gt;&lt;/div&gt;" style="rounded=1;whiteSpace=wrap;html=1;verticalAlign=bottom;align=left;arcSize=6;" parent="1" vertex="1">
          <mxGeometry x="470" y="320" width="281" height="230" as="geometry" />
        </mxCell>
        <mxCell id="fppqhzT-q2X-uRRCq6iF-4" value="Sqlite&lt;div&gt;On Sqlite Cloud&lt;/div&gt;" style="rounded=1;whiteSpace=wrap;html=1;" parent="1" vertex="1">
          <mxGeometry x="167" y="616" width="135" height="70" as="geometry" />
        </mxCell>
        <mxCell id="fppqhzT-q2X-uRRCq6iF-33" style="edgeStyle=orthogonalEdgeStyle;rounded=0;orthogonalLoop=1;jettySize=auto;html=1;entryX=0.5;entryY=0;entryDx=0;entryDy=0;" parent="1" source="fppqhzT-q2X-uRRCq6iF-9" target="fppqhzT-q2X-uRRCq6iF-3" edge="1">
          <mxGeometry relative="1" as="geometry" />
        </mxCell>
        <mxCell id="fppqhzT-q2X-uRRCq6iF-9" value="Browser (Client)" style="rounded=1;whiteSpace=wrap;html=1;" parent="1" vertex="1">
          <mxGeometry x="550.5" y="170" width="120" height="60" as="geometry" />
        </mxCell>
        <mxCell id="fppqhzT-q2X-uRRCq6iF-23" value="&lt;div style=&quot;text-align: center;&quot;&gt;&lt;b&gt;&amp;nbsp; &amp;nbsp; &amp;nbsp;React Frontend (Static Build via Nginx)&lt;/b&gt;&lt;/div&gt;&lt;ul&gt;&lt;li&gt;&lt;font size=&quot;1&quot;&gt;Render HTML/CSS/JS&lt;/font&gt;&lt;/li&gt;&lt;li&gt;&lt;font size=&quot;1&quot;&gt;Validate user input&lt;/font&gt;&lt;/li&gt;&lt;li&gt;&lt;font size=&quot;1&quot;&gt;Request and return feedback to user&lt;/font&gt;&lt;/li&gt;&lt;li&gt;&lt;font size=&quot;1&quot;&gt;Handle frontend routing with react-router&lt;/font&gt;&lt;/li&gt;&lt;/ul&gt;" style="rounded=1;whiteSpace=wrap;html=1;align=left;verticalAlign=middle;arcSize=10;" parent="1" vertex="1">
          <mxGeometry x="480" y="330" width="260" height="120" as="geometry" />
        </mxCell>
        <mxCell id="fppqhzT-q2X-uRRCq6iF-35" value="" style="sketch=0;aspect=fixed;pointerEvents=1;shadow=0;dashed=0;html=1;labelPosition=center;verticalLabelPosition=bottom;verticalAlign=top;align=center;shape=mxgraph.mscae.enterprise.lock;fillColor=light-dark(#000000,#FFFFFF);strokeColor=none;" parent="1" vertex="1">
          <mxGeometry x="730" y="530" width="10.56" height="13.54" as="geometry" />
        </mxCell>
      </root>
    </mxGraphModel>
  </diagram>
</mxfile>
